<?xml version="1.0" encoding="UTF-8"?>
<svg id="Layer_1" xmlns="http://www.w3.org/2000/svg" version="1.1" viewBox="0 0 575.3 536">
  <!-- Generator: Adobe Illustrator 29.7.1, SVG Export Plug-In . SVG Version: 2.1.1 Build 8)  -->
  <defs>
    <style>
      .st0 {
        fill: #0055b8;
      }

      .st1 {
        fill: #00943c;
      }
    </style>
  </defs>
  <rect class="st1" x=".2" y="138.3" width="143.1" height="263.7"/>
  <path class="st0" d="M407.1,364.4c2.1,12.3,3.3,24.7,3.9,37.1h158.6C569.2,179.8,387.5.2,163.5.2s-13.7.2-20.5.5v137.7c132.7,3.4,241.4,90.1,264.1,226"/>
  <rect class="st1" x="106.6" y="421" width="27.1" height="111"/>
  <rect class="st1" x="337.3" y="421" width="27.1" height="111"/>
  <polygon class="st1" points="295.6 421 295.6 463 261.3 463 261.3 421 234.2 421 234.2 531.9 261.3 531.9 261.3 489.9 295.6 489.9 295.6 531.9 322.7 531.9 322.7 421 295.6 421"/>
  <polygon class="st1" points="440.6 421 440.6 463 406.2 463 406.2 421 379.1 421 379.1 531.9 406.2 531.9 406.2 489.9 440.6 489.9 440.6 531.9 467.7 531.9 467.7 421 440.6 421"/>
  <polygon class="st1" points="65.1 421 65.1 483.3 27.8 421.2 27.8 421 .7 421 .7 531.9 27.8 531.9 27.8 469.7 65.1 531.8 65.1 531.9 92.2 531.9 92.2 421 65.1 421"/>
  <path class="st1" d="M201.4,508c-16.4,0-29.6-13.9-29.6-31s13.3-31,29.6-31,13.7,2.6,18.8,7v-32.1c-6.1-2.1-12.7-3.4-19.5-3.4-32.6,0-59.1,26.5-59.1,59.2s26.4,59.2,59.1,59.2,13.4-1.2,19.5-3.4v-31.6c-5.1,4.4-11.6,7-18.8,7"/>
  <path class="st1" d="M539.1,421l-27.7.2-36.8,110.7h29.7l5.3-16.4h31l6.8,16.4h27.7l-36-110.9ZM517,490.5l8.1-25.7,8.1,25.7h-16.1Z"/>
</svg>